<?xml version="1.0" standalone="no"?><!DOCTYPE svg PUBLIC "-//W3C//DTD SVG 1.1//EN" "http://www.w3.org/Graphics/SVG/1.1/DTD/svg11.dtd"><svg t="1766716830702" class="icon" viewBox="0 0 1024 1024" version="1.1" xmlns="http://www.w3.org/2000/svg" p-id="1595" xmlns:xlink="http://www.w3.org/1999/xlink" width="200" height="200"><path d="M575.829333 0h-128v567.296h128V0z m230.4 71.850667l-89.6 90.538666c102.4 72.106667 179.2 196.010667 179.2 340.224 0 214.442667-173.738667 391.936-384 391.936-210.176 0-383.829333-177.493333-383.829333-391.936 0-144.213333 76.8-268.117333 184.576-332.8L217.6 71.850667C89.6 169.813333 0 325.12 0 502.613333 0 789.162667 230.4 1024 511.829333 1024c281.6 0 511.914667-234.837333 511.914667-521.386667 0-177.493333-89.6-332.8-217.6-430.762666z" fill="#000000" p-id="1596"></path></svg>