<?xml version="1.0" standalone="no"?><!DOCTYPE svg PUBLIC "-//W3C//DTD SVG 1.1//EN" "http://www.w3.org/Graphics/SVG/1.1/DTD/svg11.dtd"><svg t="1767172735789" class="icon" viewBox="0 0 1755 1024" version="1.1" xmlns="http://www.w3.org/2000/svg" p-id="13916" xmlns:xlink="http://www.w3.org/1999/xlink" width="342.7734375" height="200"><path d="M670.3232 145.278171h65.887086a31.175314 31.175314 0 0 0 17.585371-6.564571l22.275657-19.459657 39.857372 62.1312a30.012343 30.012343 0 0 0 25.323885 13.838628h2.817829a30.010514 30.010514 0 0 0 25.084343-18.991542l20.6336-78.787658 21.103543 74.097372v2.110171a30.239086 30.239086 0 0 0 24.1536 18.689829 30.255543 30.255543 0 0 0 28.136228-11.8912l30.244572-56.974629 13.127314 12.891429A30.014171 30.014171 0 0 0 1027.657143 145.045943h57.448228c12.951771 0 23.445943-10.501486 23.445943-23.447772 0-12.951771-10.494171-23.447771-23.445943-23.447771h-49.943771l-23.445943-23.447771a30.251886 30.251886 0 0 0-23.599543-8.4864 30.255543 30.255543 0 0 0-21.889828 12.238628l-21.335772 39.8592-26.965943-95.663543A30.006857 30.006857 0 0 0 890.0224 3.657143a30.005029 30.005029 0 0 0-27.900343 18.993371l-26.497828 101.293715-29.540572-46.895543a30.270171 30.270171 0 0 0-20.4032-13.599086 30.712686 30.712686 0 0 0-23.447771 6.800457l-32.124343 28.1344h-59.786972a23.4496 23.4496 0 0 0-16.579657 40.027429 23.455086 23.455086 0 0 0 16.581486 6.866285z" fill="#000000" p-id="13917"></path><path d="M711.149714 691.3152m-67.229257 0a67.229257 67.229257 0 1 0 134.458514 0 67.229257 67.229257 0 1 0-134.458514 0Z" fill="#000000" p-id="13918"></path><path d="M1044.280686 691.3152m-67.229257 0a67.229257 67.229257 0 1 0 134.458514 0 67.229257 67.229257 0 1 0-134.458514 0Z" fill="#000000" p-id="13919"></path><path d="M1450.501486 695.111314a46.912 46.912 0 0 0-34.216229-14.058057H1356.964571c-3.284114-151.467886-67.291429-257.921829-171.397485-323.104914l114.890971-237.522286c21.169371-1.552457 38.659657-17.130057 42.6368-37.9776a46.908343 46.908343 0 0 0-25.654857-51.015314 46.902857 46.902857 0 0 0-55.915886 11.585828 46.906514 46.906514 0 0 0-3.274971 57.005715l-114.186972 235.648a623.5008 623.5008 0 0 0-268.234971-52.992 622.8224 622.8224 0 0 0-268.9408 54.632228L491.52 102.838857c11.834514-17.609143 10.364343-40.969143-3.578514-56.961828a46.897371 46.897371 0 1 0-38.623086 77.599085l117.237029 237.522286c-103.403886 65.181257-166.482286 172.335543-169.290972 323.342629h-58.856228a46.890057 46.890057 0 0 0-46.893715 46.897371v117.229714a46.890057 46.890057 0 0 0 46.893715 46.895543h58.382628v57.682286c0 38.853486 31.497143 70.345143 70.3488 70.345143l343.957943-0.687543-18.757486-32.8832h170.748343l-18.609371 32.6144 343.314285-0.685714c38.851657 0 70.343314-31.495314 70.343315-70.343315v-57.678628h58.8544c25.896229 0 46.893714-20.993829 46.893714-46.893715v-117.240685a46.869943 46.869943 0 0 0-13.383314-34.481372z m-1052.048457 160.777143H333.732571v-129.629257h64.720458v129.629257z m780.194742-156.0832c-7.530057 61.140114-59.8656 106.806857-121.457371 105.989486h-370.230857a117.257143 117.257143 0 0 1-87.146057-38.217143 117.248 117.248 0 0 1-30.090972-90.2784c7.528229-61.136457 59.8656-106.801371 121.457372-105.978514h370.230857a117.207771 117.207771 0 0 1 87.147886 38.217143 117.187657 117.187657 0 0 1 30.089142 90.267428z m243.999086 156.0832h-64.724114v-129.629257h64.724114v129.629257z" fill="#000000" p-id="13920"></path></svg>